<svg width="397" height="60" viewBox="0 0 397 60" fill="none" xmlns="http://www.w3.org/2000/svg">
<path d="M71.024 17.472V30.672H88.4V33.744H71.024V48H67.472V14.4H90.512V17.472H71.024ZM143.975 14.4L132.647 48H128.903L119.063 19.344L109.175 48H105.479L94.151 14.4H97.799L107.495 43.296L117.527 14.4H120.839L130.727 43.44L140.567 14.4H143.975ZM150.488 14.4H164.168C167.72 14.4 170.856 15.12 173.576 16.56C176.296 17.968 178.408 19.952 179.912 22.512C181.416 25.04 182.168 27.936 182.168 31.2C182.168 34.464 181.416 37.376 179.912 39.936C178.408 42.464 176.296 44.448 173.576 45.888C170.856 47.296 167.72 48 164.168 48H150.488V14.4ZM163.976 44.928C166.92 44.928 169.496 44.352 171.704 43.2C173.912 42.016 175.624 40.4 176.84 38.352C178.056 36.272 178.664 33.888 178.664 31.2C178.664 28.512 178.056 26.144 176.84 24.096C175.624 22.016 173.912 20.4 171.704 19.248C169.496 18.064 166.92 17.472 163.976 17.472H154.04V44.928H163.976Z" fill="black"/>
<path d="M200.696 48.336C198.04 48.336 195.656 47.776 193.544 46.656C191.432 45.536 189.784 43.984 188.6 42C187.416 39.984 186.824 37.712 186.824 35.184C186.824 32.656 187.416 30.4 188.6 28.416C189.784 26.432 191.416 24.88 193.496 23.76C195.608 22.64 198.008 22.08 200.696 22.08C203.224 22.08 205.432 22.592 207.32 23.616C209.24 24.64 210.68 26.112 211.64 28.032L207.032 30.72C206.296 29.536 205.368 28.656 204.248 28.08C203.16 27.472 201.96 27.168 200.648 27.168C198.408 27.168 196.552 27.904 195.08 29.376C193.608 30.816 192.872 32.752 192.872 35.184C192.872 37.616 193.592 39.568 195.032 41.04C196.504 42.48 198.376 43.2 200.648 43.2C201.96 43.2 203.16 42.912 204.248 42.336C205.368 41.728 206.296 40.832 207.032 39.648L211.64 42.336C210.648 44.256 209.192 45.744 207.272 46.8C205.384 47.824 203.192 48.336 200.696 48.336ZM227.972 48.336C225.38 48.336 223.044 47.776 220.964 46.656C218.884 45.536 217.252 43.984 216.068 42C214.916 39.984 214.34 37.712 214.34 35.184C214.34 32.656 214.916 30.4 216.068 28.416C217.252 26.432 218.884 24.88 220.964 23.76C223.044 22.64 225.38 22.08 227.972 22.08C230.596 22.08 232.948 22.64 235.028 23.76C237.108 24.88 238.724 26.432 239.876 28.416C241.06 30.4 241.652 32.656 241.652 35.184C241.652 37.712 241.06 39.984 239.876 42C238.724 43.984 237.108 45.536 235.028 46.656C232.948 47.776 230.596 48.336 227.972 48.336ZM227.972 43.2C230.18 43.2 232.004 42.464 233.444 40.992C234.884 39.52 235.604 37.584 235.604 35.184C235.604 32.784 234.884 30.848 233.444 29.376C232.004 27.904 230.18 27.168 227.972 27.168C225.764 27.168 223.94 27.904 222.5 29.376C221.092 30.848 220.388 32.784 220.388 35.184C220.388 37.584 221.092 39.52 222.5 40.992C223.94 42.464 225.764 43.2 227.972 43.2ZM261.933 22.08C265.165 22.08 267.757 23.024 269.709 24.912C271.661 26.8 272.637 29.6 272.637 33.312V48H266.637V34.08C266.637 31.84 266.109 30.16 265.053 29.04C263.997 27.888 262.493 27.312 260.541 27.312C258.333 27.312 256.589 27.984 255.309 29.328C254.029 30.64 253.389 32.544 253.389 35.04V48H247.389V22.368H253.101V25.68C254.093 24.496 255.341 23.6 256.845 22.992C258.349 22.384 260.045 22.08 261.933 22.08ZM294.793 22.08C298.025 22.08 300.617 23.024 302.569 24.912C304.521 26.8 305.497 29.6 305.497 33.312V48H299.497V34.08C299.497 31.84 298.969 30.16 297.913 29.04C296.857 27.888 295.353 27.312 293.401 27.312C291.193 27.312 289.449 27.984 288.169 29.328C286.889 30.64 286.249 32.544 286.249 35.04V48H280.249V22.368H285.961V25.68C286.953 24.496 288.201 23.6 289.705 22.992C291.209 22.384 292.905 22.08 294.793 22.08ZM337.438 35.328C337.438 35.744 337.406 36.336 337.342 37.104H317.23C317.582 38.992 318.494 40.496 319.966 41.616C321.47 42.704 323.326 43.248 325.534 43.248C328.35 43.248 330.67 42.32 332.494 40.464L335.71 44.16C334.558 45.536 333.102 46.576 331.342 47.28C329.582 47.984 327.598 48.336 325.39 48.336C322.574 48.336 320.094 47.776 317.95 46.656C315.806 45.536 314.142 43.984 312.958 42C311.806 39.984 311.23 37.712 311.23 35.184C311.23 32.688 311.79 30.448 312.91 28.464C314.062 26.448 315.646 24.88 317.662 23.76C319.678 22.64 321.95 22.08 324.478 22.08C326.974 22.08 329.198 22.64 331.15 23.76C333.134 24.848 334.67 26.4 335.758 28.416C336.878 30.4 337.438 32.704 337.438 35.328ZM324.478 26.88C322.558 26.88 320.926 27.456 319.582 28.608C318.27 29.728 317.47 31.232 317.182 33.12H331.726C331.47 31.264 330.686 29.76 329.374 28.608C328.062 27.456 326.43 26.88 324.478 26.88ZM354.962 48.336C352.306 48.336 349.922 47.776 347.81 46.656C345.698 45.536 344.05 43.984 342.866 42C341.682 39.984 341.09 37.712 341.09 35.184C341.09 32.656 341.682 30.4 342.866 28.416C344.05 26.432 345.682 24.88 347.762 23.76C349.874 22.64 352.274 22.08 354.962 22.08C357.49 22.08 359.698 22.592 361.586 23.616C363.506 24.64 364.946 26.112 365.906 28.032L361.298 30.72C360.562 29.536 359.634 28.656 358.514 28.08C357.426 27.472 356.226 27.168 354.914 27.168C352.674 27.168 350.818 27.904 349.346 29.376C347.874 30.816 347.138 32.752 347.138 35.184C347.138 37.616 347.858 39.568 349.298 41.04C350.77 42.48 352.642 43.2 354.914 43.2C356.226 43.2 357.426 42.912 358.514 42.336C359.634 41.728 360.562 40.832 361.298 39.648L365.906 42.336C364.914 44.256 363.458 45.744 361.538 46.8C359.65 47.824 357.458 48.336 354.962 48.336ZM386.828 46.608C386.124 47.184 385.26 47.616 384.236 47.904C383.244 48.192 382.188 48.336 381.068 48.336C378.252 48.336 376.076 47.6 374.54 46.128C373.004 44.656 372.236 42.512 372.236 39.696V27.36H368.012V22.56H372.236V16.704H378.236V22.56H385.1V27.36H378.236V39.552C378.236 40.8 378.54 41.76 379.148 42.432C379.756 43.072 380.636 43.392 381.788 43.392C383.132 43.392 384.252 43.04 385.148 42.336L386.828 46.608Z" fill="#0075FF"/>
<path d="M36.0997 28.5657C37.1667 29.1757 37.1667 30.8243 36.0997 31.4343L2.21017 50.8087C1.20767 51.3818 -6.15803e-06 50.5981 -6.15803e-06 49.3744V10.6256C-6.15803e-06 9.4019 1.20767 8.61816 2.21017 9.19128L36.0997 28.5657Z" fill="url(#paint0_linear)"/>
<g filter="url(#filter0_b)">
<path d="M59.4997 28.5657C60.5667 29.1757 60.5667 30.8243 59.4997 31.4343L25.6102 50.8087C24.6077 51.3818 23.4 50.5981 23.4 49.3744V10.6256C23.4 9.4019 24.6077 8.61816 25.6102 9.19128L59.4997 28.5657Z" fill="#C6D0EB" fill-opacity="0.85"/>
</g>
<g filter="url(#filter1_b)">
<path fill-rule="evenodd" clip-rule="evenodd" d="M25.4692 50.5219L59.3587 31.1474C60.2123 30.6595 60.2123 29.3405 59.3587 28.8525L25.4692 9.47814C24.6672 9.01965 23.701 9.64663 23.701 10.6256V49.3744C23.701 50.3534 24.6672 50.9803 25.4692 50.5219ZM59.4997 31.4343C60.5667 30.8243 60.5667 29.1757 59.4997 28.5657L25.6102 9.19128C24.6077 8.61816 23.4 9.4019 23.4 10.6256V49.3744C23.4 50.5981 24.6077 51.3818 25.6102 50.8087L59.4997 31.4343Z" fill="#BFBFBF"/>
</g>
<defs>
<filter id="filter0_b" x="20.4" y="6" width="42.9" height="48" filterUnits="userSpaceOnUse" color-interpolation-filters="sRGB">
<feFlood flood-opacity="0" result="BackgroundImageFix"/>
<feGaussianBlur in="BackgroundImage" stdDeviation="1.5"/>
<feComposite in2="SourceAlpha" operator="in" result="effect1_backgroundBlur"/>
<feBlend mode="normal" in="SourceGraphic" in2="effect1_backgroundBlur" result="shape"/>
</filter>
<filter id="filter1_b" x="20.4" y="6" width="42.9" height="48" filterUnits="userSpaceOnUse" color-interpolation-filters="sRGB">
<feFlood flood-opacity="0" result="BackgroundImageFix"/>
<feGaussianBlur in="BackgroundImage" stdDeviation="1.5"/>
<feComposite in2="SourceAlpha" operator="in" result="effect1_backgroundBlur"/>
<feBlend mode="normal" in="SourceGraphic" in2="effect1_backgroundBlur" result="shape"/>
</filter>
<linearGradient id="paint0_linear" x1="43.2" y1="30" x2="-5.45733" y2="39.5965" gradientUnits="userSpaceOnUse">
<stop stop-color="#3672F8"/>
<stop offset="1" stop-color="#B01EFF"/>
</linearGradient>
</defs>
</svg>
