<?xml version="1.0" standalone="no"?>
<!DOCTYPE svg PUBLIC "-//W3C//DTD SVG 20010904//EN"
 "http://www.w3.org/TR/2001/REC-SVG-20010904/DTD/svg10.dtd">
<svg version="1.0" xmlns="http://www.w3.org/2000/svg"
 width="270.000000pt" height="270.000000pt" viewBox="0 0 270.000000 270.000000"
 preserveAspectRatio="xMidYMid meet">
<metadata>
Created by potrace 1.11, written by Peter Selinger 2001-2013
</metadata>
<g transform="translate(0.000000,270.000000) scale(0.100000,-0.100000)"
fill="#000000" stroke="none">
<path d="M25 2234 c-20 -15 -20 -28 -23 -915 l-2 -900 26 -24 c14 -13 34 -22
45 -20 11 2 104 52 207 111 103 59 207 118 232 132 25 14 150 86 279 159 128
74 240 137 247 140 12 4 14 -37 14 -246 l0 -252 24 -24 c20 -20 29 -23 53 -16
23 7 164 85 423 234 19 11 60 34 91 51 30 17 279 159 552 315 474 271 497 286
503 316 3 18 1 42 -5 52 -7 14 -800 478 -1006 589 -11 6 -140 79 -286 162
-146 84 -274 152 -285 152 -10 0 -28 -7 -39 -16 -19 -14 -20 -30 -25 -274 l-5
-259 -280 160 c-154 87 -289 164 -300 170 -79 47 -258 149 -261 149 -1 0 -29
16 -61 35 -63 38 -88 42 -118 19z"/>
</g>
</svg>
